<svg width="383" height="315" viewBox="0 0 383 315" fill="none" xmlns="http://www.w3.org/2000/svg">
<mask id="mask0_14_177" style="mask-type:luminance" maskUnits="userSpaceOnUse" x="83" y="4" width="216" height="375">
<path d="M298.471 4.48828H83.7812V378.512H298.471V4.48828Z" fill="white"/>
</mask>
<g mask="url(#mask0_14_177)">
<mask id="mask1_14_177" style="mask-type:luminance" maskUnits="userSpaceOnUse" x="83" y="133" width="216" height="246">
<path d="M211.697 133.152H170.555C122.631 133.152 83.7812 172.002 83.7812 219.926V291.738C83.7812 339.662 122.631 378.512 170.555 378.512H211.697C259.621 378.512 298.471 339.662 298.471 291.738V219.926C298.471 172.002 259.621 133.152 211.697 133.152Z" fill="white"/>
</mask>
<g mask="url(#mask1_14_177)">
<mask id="mask2_14_177" style="mask-type:alpha" maskUnits="userSpaceOnUse" x="83" y="133" width="217" height="248">
<path d="M83.0332 188.42C83.0332 169.599 94.7575 152.73 112.813 147.417C133.219 141.413 160.362 134.692 181.775 133.9C209.108 132.891 244.614 140.896 269.548 147.773C287.932 152.844 299.967 169.859 299.967 188.928V333.496C299.967 358.042 280.247 378.036 255.703 378.374L128.535 380.128C103.507 380.473 83.0332 360.28 83.0332 335.249V188.42Z" fill="#FFC364"/>
</mask>
<g mask="url(#mask2_14_177)">
<path d="M306.699 121.184H74.8047V384.496H306.699V121.184Z" fill="#FFB43B"/>
<path d="M83.0332 163.074C83.0332 163.074 149.331 217.836 189.256 233.391C246.855 255.832 299.219 260.32 299.219 260.32" stroke="#514235" stroke-opacity="0.28" stroke-width="3"/>
<path d="M103.23 125.672C103.23 125.672 169.528 180.433 209.453 195.988C267.053 218.43 319.416 222.918 319.416 222.918" stroke="#514235" stroke-opacity="0.28" stroke-width="3"/>
<path d="M133.152 95.75C133.152 95.75 199.45 150.511 239.375 166.066C296.975 188.508 349.338 192.996 349.338 192.996" stroke="#514235" stroke-opacity="0.28" stroke-width="3"/>
<path d="M82.2852 207.957C82.2852 207.957 132.126 251.498 172.051 267.053C229.65 289.494 299.219 299.967 299.219 299.967" stroke="#514235" stroke-opacity="0.28" stroke-width="3"/>
<path d="M83.0332 254.336C83.0332 254.336 134.37 291.144 174.295 306.699C231.895 329.141 298.471 340.361 298.471 340.361" stroke="#514235" stroke-opacity="0.28" stroke-width="3"/>
<path d="M71.0645 291.738C71.0645 291.738 127.638 329.295 167.562 344.85C225.162 367.291 298.471 380.756 298.471 380.756" stroke="#514235" stroke-opacity="0.28" stroke-width="3"/>
<path d="M-26.2065 333.144C-26.2065 333.144 102.455 294.944 155.842 260.86C232.864 211.688 311.188 119.687 311.188 119.687" stroke="#514235" stroke-opacity="0.28" stroke-width="3"/>
<path d="M-61.8042 287.112C-61.8042 287.112 66.8573 248.913 120.245 214.829C197.268 165.656 245.282 110.835 245.282 110.835" stroke="#514235" stroke-opacity="0.28" stroke-width="3"/>
<path d="M-79.293 235.128C-79.293 235.128 49.3685 196.926 102.756 162.844C179.778 113.671 227.792 58.8491 227.792 58.8491" stroke="#514235" stroke-opacity="0.28" stroke-width="3"/>
<path d="M35.2642 362.511C35.2642 362.511 135.269 335.302 188.656 301.217C265.68 252.045 335.706 182.079 335.706 182.079" stroke="#514235" stroke-opacity="0.28" stroke-width="3"/>
<path d="M99.998 391.181C99.998 391.181 191.888 358.042 245.276 323.958C322.298 274.786 390.97 208.591 390.97 208.591" stroke="#514235" stroke-opacity="0.28" stroke-width="3"/>
<path d="M142.165 428.149C142.165 428.149 239.27 389.719 292.657 355.635C369.68 306.463 446.831 234.279 446.831 234.279" stroke="#514235" stroke-opacity="0.28" stroke-width="3"/>
<path d="M157.628 471.512C157.628 471.512 254.732 433.083 308.12 398.999C385.142 349.827 462.293 277.642 462.293 277.642" stroke="#514235" stroke-opacity="0.28" stroke-width="3"/>
<path d="M143.625 233.391C154.367 233.391 163.074 224.683 163.074 213.941C163.074 203.2 154.367 194.492 143.625 194.492C132.883 194.492 124.176 203.2 124.176 213.941C124.176 224.683 132.883 233.391 143.625 233.391Z" fill="white"/>
<path d="M239.375 233.391C250.117 233.391 258.824 224.683 258.824 213.941C258.824 203.2 250.117 194.492 239.375 194.492C228.633 194.492 219.926 203.2 219.926 213.941C219.926 224.683 228.633 233.391 239.375 233.391Z" fill="white"/>
<path d="M240.871 222.918C245.829 222.918 249.848 218.899 249.848 213.941C249.848 208.984 245.829 204.965 240.871 204.965C235.913 204.965 231.895 208.984 231.895 213.941C231.895 218.899 235.913 222.918 240.871 222.918Z" fill="black"/>
<path d="M142.129 222.918C147.087 222.918 151.105 218.899 151.105 213.941C151.105 208.984 147.087 204.965 142.129 204.965C137.171 204.965 133.152 208.984 133.152 213.941C133.152 218.899 137.171 222.918 142.129 222.918Z" fill="black"/>
<path d="M176.539 245.359C176.539 245.359 176.428 257.328 190.752 257.328C205.076 257.328 205.713 245.359 205.713 245.359" stroke="black" stroke-width="7" stroke-linecap="round"/>
</g>
</g>
<path d="M104.727 50.1191L151.854 83.7812L145.869 15.709L172.799 89.0176L196.736 4.48828L204.217 83.7812L244.611 28.4258L231.895 95.75L283.51 53.1113L220.674 140.633H164.57L104.727 50.1191Z" fill="#286F28"/>
<path d="M104.353 78.9641L151.677 101.899L145.667 55.5199L172.709 105.466L196.747 47.875L204.259 101.899L244.822 64.1841L232.053 110.053L283.884 81.0029L220.785 140.633H164.446L104.353 78.9641Z" fill="#50AF50"/>
</g>
</svg>
