<svg width="1440" height="60" viewBox="0 0 1440 60" fill="none" xmlns="http://www.w3.org/2000/svg">
<g clip-path="url(#clip0_14_115)">
<mask id="mask0_14_115" style="mask-type:luminance" maskUnits="userSpaceOnUse" x="178" y="6" width="154" height="48">
<path d="M332 6H178V54H332V6Z" fill="white"/>
</mask>
<g mask="url(#mask0_14_115)">
<mask id="mask1_14_115" style="mask-type:luminance" maskUnits="userSpaceOnUse" x="191" y="12" width="16" height="28">
<path d="M206.966 12H191V39.8156H206.966V12Z" fill="white"/>
</mask>
<g mask="url(#mask1_14_115)">
<mask id="mask2_14_115" style="mask-type:luminance" maskUnits="userSpaceOnUse" x="191" y="21" width="16" height="19">
<path d="M200.513 21.5686H197.453C193.889 21.5686 191 24.4578 191 28.0218V33.3624C191 36.9264 193.889 39.8156 197.453 39.8156H200.513C204.077 39.8156 206.966 36.9264 206.966 33.3624V28.0218C206.966 24.4578 204.077 21.5686 200.513 21.5686Z" fill="white"/>
</mask>
<g mask="url(#mask2_14_115)">
<mask id="mask3_14_115" style="mask-type:alpha" maskUnits="userSpaceOnUse" x="190" y="21" width="18" height="19">
<path d="M190.944 25.6787C190.944 24.279 191.816 23.0245 193.159 22.6294C194.677 22.1829 196.695 21.683 198.288 21.6242C200.32 21.5491 202.961 22.1444 204.815 22.6559C206.182 23.033 207.077 24.2984 207.077 25.7165V36.4678C207.077 38.2933 205.611 39.7802 203.786 39.8054L194.328 39.9358C192.467 39.9615 190.944 38.4598 190.944 36.5982V25.6787Z" fill="#FFC364"/>
</mask>
<g mask="url(#mask3_14_115)">
<path d="M207.578 20.6785H190.333V40.2607H207.578V20.6785Z" fill="#FFB43B"/>
<path d="M190.944 23.7938C190.944 23.7938 195.875 27.8664 198.844 29.0232C203.128 30.6921 207.022 31.0259 207.022 31.0259" stroke="#514235" stroke-opacity="0.28" stroke-width="0.333788"/>
<path d="M192.447 21.0123C192.447 21.0123 197.377 25.0848 200.346 26.2416C204.63 27.9105 208.524 28.2443 208.524 28.2443" stroke="#514235" stroke-opacity="0.28" stroke-width="0.333788"/>
<path d="M194.672 18.787C194.672 18.787 199.602 22.8595 202.571 24.0163C206.855 25.6853 210.749 26.0191 210.749 26.0191" stroke="#514235" stroke-opacity="0.28" stroke-width="0.333788"/>
<path d="M190.889 27.1317C190.889 27.1317 194.595 30.3698 197.564 31.5266C201.848 33.1955 207.022 33.9743 207.022 33.9743" stroke="#514235" stroke-opacity="0.28" stroke-width="0.333788"/>
<path d="M190.944 30.5808C190.944 30.5808 194.762 33.3182 197.731 34.475C202.015 36.144 206.966 36.9784 206.966 36.9784" stroke="#514235" stroke-opacity="0.28" stroke-width="0.333788"/>
<path d="M190.055 33.3624C190.055 33.3624 194.262 36.1554 197.231 37.3122C201.515 38.9812 206.967 39.9825 206.967 39.9825" stroke="#514235" stroke-opacity="0.28" stroke-width="0.333788"/>
<path d="M188.219 35.2539C188.219 35.2539 192.426 38.0469 195.395 39.2037C199.679 40.8726 205.131 41.874 205.131 41.874" stroke="#514235" stroke-opacity="0.28" stroke-width="0.333788"/>
<path d="M182.82 36.4417C182.82 36.4417 192.389 33.6008 196.359 31.066C202.087 27.4092 207.912 20.5672 207.912 20.5672" stroke="#514235" stroke-opacity="0.28" stroke-width="0.333788"/>
<path d="M180.173 33.0184C180.173 33.0184 189.742 30.1775 193.712 27.6427C199.44 23.9859 203.011 19.9089 203.011 19.9089" stroke="#514235" stroke-opacity="0.28" stroke-width="0.333788"/>
<path d="M178.873 29.1523C178.873 29.1523 188.441 26.3114 192.411 23.7767C198.139 20.1198 201.71 16.0427 201.71 16.0427" stroke="#514235" stroke-opacity="0.28" stroke-width="0.333788"/>
<path d="M187.392 38.6257C187.392 38.6257 194.829 36.6021 198.8 34.0674C204.528 30.4105 209.736 25.2072 209.736 25.2072" stroke="#514235" stroke-opacity="0.28" stroke-width="0.333788"/>
<path d="M192.206 40.7578C192.206 40.7578 199.04 38.2933 203.01 35.7585C208.738 32.1017 213.845 27.1789 213.845 27.1789" stroke="#514235" stroke-opacity="0.28" stroke-width="0.333788"/>
<path d="M195.342 43.5071C195.342 43.5071 202.564 40.6491 206.534 38.1143C212.262 34.4574 218 29.0892 218 29.0892" stroke="#514235" stroke-opacity="0.28" stroke-width="0.333788"/>
<path d="M196.492 46.7319C196.492 46.7319 203.714 43.874 207.684 41.3392C213.412 37.6824 219.15 32.3141 219.15 32.3141" stroke="#514235" stroke-opacity="0.28" stroke-width="0.333788"/>
<path d="M195.451 29.0232C196.25 29.0232 196.897 28.3756 196.897 27.5767C196.897 26.7779 196.25 26.1303 195.451 26.1303C194.652 26.1303 194.004 26.7779 194.004 27.5767C194.004 28.3756 194.652 29.0232 195.451 29.0232Z" fill="white"/>
<path d="M202.571 29.0232C203.37 29.0232 204.018 28.3756 204.018 27.5767C204.018 26.7779 203.37 26.1303 202.571 26.1303C201.773 26.1303 201.125 26.7779 201.125 27.5767C201.125 28.3756 201.773 29.0232 202.571 29.0232Z" fill="white"/>
<path d="M202.683 28.2443C203.051 28.2443 203.35 27.9454 203.35 27.5767C203.35 27.2081 203.051 26.9092 202.683 26.9092C202.314 26.9092 202.015 27.2081 202.015 27.5767C202.015 27.9454 202.314 28.2443 202.683 28.2443Z" fill="black"/>
<path d="M195.339 28.2443C195.708 28.2443 196.007 27.9454 196.007 27.5767C196.007 27.2081 195.708 26.9092 195.339 26.9092C194.971 26.9092 194.672 27.2081 194.672 27.5767C194.672 27.9454 194.971 28.2443 195.339 28.2443Z" fill="black"/>
<path d="M197.898 29.9133C197.898 29.9133 197.89 30.8034 198.955 30.8034C200.021 30.8034 200.068 29.9133 200.068 29.9133" stroke="black" stroke-width="0.778838" stroke-linecap="round"/>
</g>
</g>
<path d="M192.558 15.3935L196.062 17.8969L195.617 12.8345L197.62 18.2863L199.4 12L199.957 17.8969L202.961 13.7802L202.015 18.787L205.853 15.616L201.18 22.1249H197.008L192.558 15.3935Z" fill="#286F28"/>
<path d="M192.53 17.5387L196.049 19.2443L195.602 15.7952L197.613 19.5096L199.401 15.2266L199.96 19.2443L202.976 16.4395L202.027 19.8507L205.881 17.6903L201.189 22.1249H196.999L192.53 17.5387Z" fill="#50AF50"/>
</g>
<path d="M223.089 23.0829C225.14 23.0829 226.634 23.5287 227.57 24.4205C228.521 25.2973 228.997 26.5086 228.997 28.0542C228.997 28.7527 228.893 29.4215 228.685 30.0606C228.477 30.6848 228.127 31.2495 227.637 31.7548C227.161 32.2453 226.53 32.6317 225.742 32.914C224.954 33.1964 223.981 33.3376 222.822 33.3376H221.373V39H218.006V23.0829H223.089ZM222.911 25.8472H221.373V30.5733H222.487C223.126 30.5733 223.676 30.4915 224.137 30.3281C224.598 30.1646 224.954 29.9045 225.207 29.5478C225.46 29.1911 225.586 28.7304 225.586 28.1657C225.586 27.378 225.37 26.7984 224.939 26.4268C224.508 26.0404 223.832 25.8472 222.911 25.8472ZM235.059 26.8281V39H231.737V26.8281H235.059ZM233.409 22.0574C233.9 22.0574 234.323 22.1763 234.68 22.4141C235.037 22.637 235.215 23.0606 235.215 23.6848C235.215 24.2941 235.037 24.7177 234.68 24.9555C234.323 25.1933 233.9 25.3122 233.409 25.3122C232.904 25.3122 232.473 25.1933 232.116 24.9555C231.774 24.7177 231.603 24.2941 231.603 23.6848C231.603 23.0606 231.774 22.637 232.116 22.4141C232.473 22.1763 232.904 22.0574 233.409 22.0574ZM245.44 26.6052C246.748 26.6052 247.796 26.9618 248.584 27.6752C249.371 28.3737 249.765 29.5032 249.765 31.0637V39H246.444V31.8886C246.444 31.0117 246.287 30.3578 245.975 29.9268C245.663 29.4809 245.165 29.258 244.482 29.258C243.471 29.258 242.78 29.6073 242.408 30.3058C242.037 30.9894 241.851 31.9777 241.851 33.2707V39H238.53V26.8281H241.071L241.517 28.3886H241.695C241.963 27.9725 242.29 27.6381 242.676 27.3854C243.062 27.1179 243.493 26.9247 243.969 26.8058C244.445 26.672 244.935 26.6052 245.44 26.6052ZM258.197 26.6052C259.326 26.6052 260.292 26.8207 261.095 27.2516C261.912 27.6826 262.544 28.3068 262.99 29.1243C263.436 29.9417 263.659 30.9448 263.659 32.1338V33.7389H255.812C255.841 34.6752 256.116 35.4108 256.636 35.9459C257.171 36.4809 257.907 36.7484 258.843 36.7484C259.631 36.7484 260.344 36.6741 260.984 36.5255C261.623 36.362 262.284 36.1168 262.968 35.7898V38.3535C262.373 38.6507 261.741 38.8662 261.073 39C260.419 39.1486 259.624 39.2229 258.687 39.2229C257.469 39.2229 256.391 39 255.455 38.5541C254.519 38.0934 253.783 37.4023 253.248 36.4809C252.713 35.5595 252.445 34.4002 252.445 33.0032C252.445 31.5765 252.683 30.3949 253.159 29.4586C253.649 28.5075 254.325 27.7941 255.187 27.3185C256.049 26.8429 257.053 26.6052 258.197 26.6052ZM258.219 28.9682C257.58 28.9682 257.045 29.1763 256.614 29.5924C256.198 30.0085 255.953 30.655 255.878 31.5319H260.538C260.538 31.0414 260.448 30.603 260.27 30.2166C260.107 29.8302 259.854 29.5255 259.512 29.3026C259.17 29.0797 258.739 28.9682 258.219 28.9682ZM271.346 26.5829C272.981 26.5829 274.229 26.9395 275.091 27.6529C275.968 28.3514 276.406 29.4289 276.406 30.8854V39H274.088L273.441 37.3503H273.352C273.01 37.7813 272.654 38.138 272.282 38.4204C271.925 38.7028 271.509 38.9034 271.034 39.0223C270.573 39.1561 270.001 39.2229 269.317 39.2229C268.604 39.2229 267.957 39.0892 267.378 38.8217C266.813 38.5393 266.367 38.1157 266.04 37.551C265.713 36.9713 265.55 36.2431 265.55 35.3663C265.55 34.0733 266.003 33.1221 266.909 32.5128C267.816 31.8886 269.176 31.5467 270.989 31.4873L273.107 31.4204V30.8854C273.107 30.2463 272.936 29.7782 272.594 29.4809C272.267 29.1837 271.806 29.0351 271.212 29.0351C270.617 29.0351 270.038 29.1243 269.473 29.3026C268.908 29.4661 268.344 29.6741 267.779 29.9268L266.686 27.6752C267.34 27.3334 268.061 27.0659 268.849 26.8727C269.651 26.6795 270.484 26.5829 271.346 26.5829ZM271.814 33.4045C270.744 33.4342 270.001 33.6274 269.585 33.9841C269.168 34.3408 268.96 34.8089 268.96 35.3886C268.96 35.8939 269.109 36.258 269.406 36.4809C269.703 36.689 270.09 36.793 270.565 36.793C271.279 36.793 271.881 36.5849 272.371 36.1688C272.862 35.7378 273.107 35.1359 273.107 34.3631V33.3599L271.814 33.4045ZM286.583 26.6052C287.951 26.6052 289.058 27.1402 289.905 28.2102C290.752 29.2654 291.176 30.8259 291.176 32.8917C291.176 34.2739 290.975 35.4406 290.574 36.3917C290.172 37.328 289.623 38.034 288.924 38.5096C288.226 38.9851 287.416 39.2229 286.494 39.2229C285.914 39.2229 285.409 39.1486 284.978 39C284.562 38.8514 284.205 38.6582 283.908 38.4204C283.611 38.1826 283.351 37.9299 283.128 37.6624H282.95C283.009 37.9448 283.054 38.242 283.083 38.5541C283.113 38.8514 283.128 39.1486 283.128 39.4459V44.3503H279.806V26.8281H282.504L282.972 28.4109H283.128C283.351 28.0839 283.618 27.7867 283.93 27.5192C284.243 27.2368 284.614 27.0139 285.045 26.8504C285.491 26.6869 286.004 26.6052 286.583 26.6052ZM285.513 29.258C284.934 29.258 284.473 29.3769 284.131 29.6147C283.789 29.8525 283.537 30.2166 283.373 30.707C283.224 31.1826 283.143 31.7845 283.128 32.5128V32.8695C283.128 33.6571 283.202 34.3259 283.351 34.8758C283.499 35.4108 283.752 35.8195 284.109 36.1019C284.465 36.3843 284.948 36.5255 285.558 36.5255C286.063 36.5255 286.479 36.3843 286.806 36.1019C287.133 35.8195 287.378 35.4034 287.542 34.8535C287.705 34.3036 287.787 33.6348 287.787 32.8472C287.787 31.6582 287.601 30.7665 287.23 30.172C286.873 29.5627 286.301 29.258 285.513 29.258ZM300.691 26.6052C302.058 26.6052 303.165 27.1402 304.012 28.2102C304.859 29.2654 305.283 30.8259 305.283 32.8917C305.283 34.2739 305.082 35.4406 304.681 36.3917C304.28 37.328 303.73 38.034 303.031 38.5096C302.333 38.9851 301.523 39.2229 300.601 39.2229C300.022 39.2229 299.516 39.1486 299.085 39C298.669 38.8514 298.313 38.6582 298.015 38.4204C297.718 38.1826 297.458 37.9299 297.235 37.6624H297.057C297.116 37.9448 297.161 38.242 297.191 38.5541C297.22 38.8514 297.235 39.1486 297.235 39.4459V44.3503H293.913V26.8281H296.611L297.079 28.4109H297.235C297.458 28.0839 297.726 27.7867 298.038 27.5192C298.35 27.2368 298.721 27.0139 299.152 26.8504C299.598 26.6869 300.111 26.6052 300.691 26.6052ZM299.62 29.258C299.041 29.258 298.58 29.3769 298.238 29.6147C297.896 29.8525 297.644 30.2166 297.48 30.707C297.332 31.1826 297.25 31.7845 297.235 32.5128V32.8695C297.235 33.6571 297.309 34.3259 297.458 34.8758C297.607 35.4108 297.859 35.8195 298.216 36.1019C298.573 36.3843 299.056 36.5255 299.665 36.5255C300.17 36.5255 300.586 36.3843 300.913 36.1019C301.24 35.8195 301.486 35.4034 301.649 34.8535C301.813 34.3036 301.894 33.6348 301.894 32.8472C301.894 31.6582 301.709 30.7665 301.337 30.172C300.98 29.5627 300.408 29.258 299.62 29.258ZM311.342 39H308.021V22.0574H311.342V39ZM319.829 26.6052C320.958 26.6052 321.924 26.8207 322.727 27.2516C323.544 27.6826 324.176 28.3068 324.622 29.1243C325.068 29.9417 325.291 30.9448 325.291 32.1338V33.7389H317.444C317.473 34.6752 317.748 35.4108 318.268 35.9459C318.803 36.4809 319.539 36.7484 320.475 36.7484C321.263 36.7484 321.976 36.6741 322.616 36.5255C323.255 36.362 323.916 36.1168 324.6 35.7898V38.3535C324.005 38.6507 323.374 38.8662 322.705 39C322.051 39.1486 321.256 39.2229 320.319 39.2229C319.101 39.2229 318.023 39 317.087 38.5541C316.151 38.0934 315.415 37.4023 314.88 36.4809C314.345 35.5595 314.077 34.4002 314.077 33.0032C314.077 31.5765 314.315 30.3949 314.791 29.4586C315.281 28.5075 315.957 27.7941 316.819 27.3185C317.681 26.8429 318.685 26.6052 319.829 26.6052ZM319.851 28.9682C319.212 28.9682 318.677 29.1763 318.246 29.5924C317.83 30.0085 317.585 30.655 317.51 31.5319H322.17C322.17 31.0414 322.081 30.603 321.902 30.2166C321.739 29.8302 321.486 29.5255 321.144 29.3026C320.802 29.0797 320.371 28.9682 319.851 28.9682Z" fill="white"/>
</g>
</g>
<defs>
<clipPath id="clip0_14_115">
<rect width="154" height="48" fill="white" transform="translate(178 6)"/>
</clipPath>
</defs>
</svg>
