<svg width="250" height="78" viewBox="0 0 250 78" fill="none" xmlns="http://www.w3.org/2000/svg">
<mask id="mask0_14_231" style="mask-type:luminance" maskUnits="userSpaceOnUse" x="0" y="0" width="250" height="78">
<path d="M250 0H0V78H250V0Z" fill="white"/>
</mask>
<g mask="url(#mask0_14_231)">
<mask id="mask1_14_231" style="mask-type:luminance" maskUnits="userSpaceOnUse" x="21" y="9" width="27" height="46">
<path d="M47.0232 9.75H21.104V54.9504H47.0232V9.75Z" fill="white"/>
</mask>
<g mask="url(#mask1_14_231)">
<mask id="mask2_14_231" style="mask-type:luminance" maskUnits="userSpaceOnUse" x="21" y="25" width="27" height="30">
<path d="M36.547 25.2991H31.58C25.7943 25.2991 21.104 29.994 21.104 35.7855V44.464C21.104 50.2555 25.7943 54.9505 31.58 54.9505H36.547C42.3329 54.9505 47.0232 50.2555 47.0232 44.464V35.7855C47.0232 29.994 42.3329 25.2991 36.547 25.2991Z" fill="white"/>
</mask>
<g mask="url(#mask2_14_231)">
<mask id="mask3_14_231" style="mask-type:alpha" maskUnits="userSpaceOnUse" x="21" y="25" width="27" height="31">
<path d="M21.0137 31.9779C21.0137 29.7034 22.4291 27.6649 24.609 27.0228C27.0724 26.2973 30.3494 25.4849 32.9346 25.3894C36.2343 25.2673 40.521 26.2347 43.5312 27.0659C45.7507 27.6787 47.2036 29.735 47.2036 32.0394V49.5102C47.2036 52.4767 44.8229 54.8929 41.8598 54.9338L26.507 55.1457C23.4854 55.1875 21.0137 52.7472 21.0137 49.7221V31.9779Z" fill="#FFC364"/>
</mask>
<g mask="url(#mask3_14_231)">
<path d="M48.0163 23.8525H20.02V55.6736H48.0163V23.8525Z" fill="#FFB43B"/>
<path d="M21.0137 28.9148C21.0137 28.9148 29.0176 35.5328 33.8377 37.4126C40.7916 40.1245 47.1133 40.667 47.1133 40.667" stroke="#514235" stroke-opacity="0.28" stroke-width="0.333788"/>
<path d="M23.4517 24.395C23.4517 24.395 31.4557 31.0128 36.2758 32.8926C43.2297 35.6046 49.5513 36.147 49.5513 36.147" stroke="#514235" stroke-opacity="0.28" stroke-width="0.333788"/>
<path d="M27.0645 20.7788C27.0645 20.7788 35.0685 27.3966 39.8885 29.2764C46.8424 31.9885 53.1641 32.531 53.1641 32.531" stroke="#514235" stroke-opacity="0.28" stroke-width="0.333788"/>
<path d="M20.9229 34.3389C20.9229 34.3389 26.9401 39.6008 31.7602 41.4806C38.7141 44.1925 47.1129 45.4581 47.1129 45.4581" stroke="#514235" stroke-opacity="0.28" stroke-width="0.333788"/>
<path d="M21.0137 39.9438C21.0137 39.9438 27.2114 44.3921 32.0315 46.2719C38.9854 48.984 47.0231 50.3399 47.0231 50.3399" stroke="#514235" stroke-opacity="0.28" stroke-width="0.333788"/>
<path d="M19.5684 44.4639C19.5684 44.4639 26.3982 49.0025 31.2184 50.8823C38.1723 53.5944 47.0227 55.2215 47.0227 55.2215" stroke="#514235" stroke-opacity="0.28" stroke-width="0.333788"/>
<path d="M16.5879 47.5376C16.5879 47.5376 23.4179 52.0762 28.2381 53.956C35.1919 56.668 44.0423 58.2953 44.0423 58.2953" stroke="#514235" stroke-opacity="0.28" stroke-width="0.333788"/>
<path d="M7.8252 49.4677C7.8252 49.4677 23.3582 44.8512 29.8037 40.7322C39.1024 34.7899 48.5582 23.6716 48.5582 23.6716" stroke="#514235" stroke-opacity="0.28" stroke-width="0.333788"/>
<path d="M3.52734 43.9047C3.52734 43.9047 19.0605 39.2883 25.5059 35.1692C34.8046 29.2269 40.6014 22.6018 40.6014 22.6018" stroke="#514235" stroke-opacity="0.28" stroke-width="0.333788"/>
<path d="M1.41602 37.6224C1.41602 37.6224 16.9491 33.006 23.3944 28.8871C32.6933 22.9446 38.4899 16.3193 38.4899 16.3193" stroke="#514235" stroke-opacity="0.28" stroke-width="0.333788"/>
<path d="M15.2461 53.0167C15.2461 53.0167 27.3196 49.7284 33.7649 45.6095C43.0637 39.667 51.518 31.2117 51.518 31.2117" stroke="#514235" stroke-opacity="0.28" stroke-width="0.333788"/>
<path d="M23.0615 56.4815C23.0615 56.4815 34.1552 52.4767 40.6006 48.3576C49.8993 42.4153 58.1901 34.4158 58.1901 34.4158" stroke="#514235" stroke-opacity="0.28" stroke-width="0.333788"/>
<path d="M28.1523 60.9491C28.1523 60.9491 39.8757 56.3049 46.321 52.1858C55.6199 46.2433 64.9342 37.52 64.9342 37.52" stroke="#514235" stroke-opacity="0.28" stroke-width="0.333788"/>
<path d="M30.019 66.1892C30.019 66.1892 41.7423 61.5451 48.1877 57.426C57.4864 51.4837 66.8007 42.7603 66.8007 42.7603" stroke="#514235" stroke-opacity="0.28" stroke-width="0.333788"/>
<path d="M28.3285 37.4126C29.6253 37.4126 30.6766 36.3603 30.6766 35.0621C30.6766 33.764 29.6253 32.7117 28.3285 32.7117C27.0318 32.7117 25.9805 33.764 25.9805 35.0621C25.9805 36.3603 27.0318 37.4126 28.3285 37.4126Z" fill="white"/>
<path d="M39.8881 37.4126C41.1848 37.4126 42.2361 36.3603 42.2361 35.0621C42.2361 33.764 41.1848 32.7117 39.8881 32.7117C38.5913 32.7117 37.54 33.764 37.54 35.0621C37.54 36.3603 38.5913 37.4126 39.8881 37.4126Z" fill="white"/>
<path d="M40.0691 36.1468C40.6677 36.1468 41.1527 35.6611 41.1527 35.062C41.1527 34.463 40.6677 33.9773 40.0691 33.9773C39.4706 33.9773 38.9854 34.463 38.9854 35.062C38.9854 35.6611 39.4706 36.1468 40.0691 36.1468Z" fill="black"/>
<path d="M28.1481 36.1468C28.7466 36.1468 29.2318 35.6611 29.2318 35.062C29.2318 34.463 28.7466 33.9773 28.1481 33.9773C27.5495 33.9773 27.0645 34.463 27.0645 35.062C27.0645 35.6611 27.5495 36.1468 28.1481 36.1468Z" fill="black"/>
<path d="M32.3022 38.8591C32.3022 38.8591 32.2888 40.3055 34.0182 40.3055C35.7474 40.3055 35.8243 38.8591 35.8243 38.8591" stroke="black" stroke-width="0.778838" stroke-linecap="round"/>
</g>
</g>
<path d="M23.6328 15.2645L29.3223 19.3325L28.5999 11.106L31.851 19.9652L34.7409 9.75L35.644 19.3325L40.5208 12.6428L38.9856 20.7789L45.2169 15.626L37.6309 26.203H30.8576L23.6328 15.2645Z" fill="#286F28"/>
<path d="M23.5874 18.7503L29.3007 21.5219L28.5752 15.917L31.8398 21.953L34.7419 14.9932L35.6488 21.5219L40.546 16.9641L39.0044 22.5073L45.2619 18.9966L37.6441 26.2029H30.8423L23.5874 18.7503Z" fill="#50AF50"/>
</g>
<path d="M73.1969 27.7597C76.5265 27.7597 78.9512 28.4841 80.4711 29.9333C82.0153 31.3581 82.7874 33.3265 82.7874 35.8381C82.7874 36.9731 82.6184 38.0599 82.2807 39.0985C81.9429 40.1128 81.3758 41.0304 80.5797 41.8515C79.8077 42.6486 78.7823 43.2765 77.5036 43.7352C76.2249 44.1941 74.6447 44.4236 72.7627 44.4236H70.4104V53.625H64.9458V27.7597H73.1969ZM72.9075 32.2517H70.4104V39.9316H72.2198C73.2573 39.9316 74.15 39.7987 74.8979 39.5331C75.6458 39.2675 76.2249 38.8448 76.6351 38.2652C77.0452 37.6855 77.2502 36.9369 77.2502 36.0193C77.2502 34.7392 76.9003 33.7974 76.2007 33.1935C75.5012 32.5656 74.4033 32.2517 72.9075 32.2517ZM92.6284 33.8456V53.625H87.2361V33.8456H92.6284ZM89.9503 26.0933C90.7464 26.0933 91.4341 26.2865 92.0132 26.6729C92.5922 27.0351 92.8817 27.7235 92.8817 28.7378C92.8817 29.7279 92.5922 30.4162 92.0132 30.8027C91.4341 31.1891 90.7464 31.3823 89.9503 31.3823C89.1301 31.3823 88.4304 31.1891 87.8513 30.8027C87.2964 30.4162 87.019 29.7279 87.019 28.7378C87.019 27.7235 87.2964 27.0351 87.8513 26.6729C88.4304 26.2865 89.1301 26.0933 89.9503 26.0933ZM109.482 33.4834C111.605 33.4834 113.306 34.0629 114.584 35.2222C115.863 36.3572 116.502 38.1927 116.502 40.7285V53.625H111.11V42.069C111.11 40.644 110.857 39.5814 110.35 38.881C109.843 38.1564 109.035 37.7942 107.925 37.7942C106.285 37.7942 105.163 38.3618 104.56 39.4969C103.957 40.6078 103.655 42.2138 103.655 44.3149V53.625H98.2627V33.8456H102.388L103.112 36.3815H103.402C103.836 35.7053 104.367 35.1619 104.994 34.7513C105.621 34.3166 106.321 34.0026 107.093 33.8094C107.865 33.592 108.661 33.4834 109.482 33.4834ZM130.19 33.4834C132.024 33.4834 133.592 33.8336 134.895 34.5338C136.222 35.2342 137.247 36.2485 137.971 37.577C138.695 38.9052 139.057 40.5353 139.057 42.4674V45.0757H126.318C126.366 46.5972 126.813 47.7925 127.657 48.6621C128.526 49.5315 129.72 49.9661 131.24 49.9661C132.518 49.9661 133.676 49.8454 134.714 49.6039C135.751 49.3382 136.825 48.9398 137.935 48.4084V52.5744C136.97 53.0574 135.944 53.4076 134.859 53.625C133.797 53.8665 132.506 53.9872 130.986 53.9872C129.008 53.9872 127.259 53.625 125.739 52.9004C124.219 52.1518 123.025 51.0287 122.156 49.5314C121.288 48.0342 120.853 46.1503 120.853 43.8802C120.853 41.5618 121.239 39.6417 122.011 38.1202C122.807 36.5747 123.905 35.4154 125.305 34.6426C126.704 33.8697 128.332 33.4834 130.19 33.4834ZM130.226 37.3233C129.189 37.3233 128.32 37.6615 127.621 38.3376C126.945 39.0138 126.547 40.0644 126.426 41.4893H133.99C133.99 40.6923 133.845 39.9799 133.556 39.352C133.29 38.7241 132.88 38.2289 132.325 37.8667C131.77 37.5045 131.071 37.3233 130.226 37.3233ZM151.536 33.4472C154.19 33.4472 156.216 34.0267 157.616 35.186C159.039 36.321 159.751 38.072 159.751 40.4388V53.625H155.987L154.938 50.9442H154.793C154.238 51.6446 153.659 52.2242 153.056 52.6831C152.477 53.142 151.801 53.468 151.029 53.6612C150.281 53.8787 149.352 53.9872 148.242 53.9872C147.084 53.9872 146.035 53.7699 145.094 53.3353C144.177 52.8764 143.453 52.188 142.922 51.2704C142.392 50.3284 142.126 49.145 142.126 47.7202C142.126 45.6191 142.862 44.0734 144.334 43.0833C145.806 42.069 148.013 41.5134 150.957 41.4169L154.395 41.3081V40.4388C154.395 39.4002 154.117 38.6396 153.562 38.1564C153.032 37.6735 152.284 37.432 151.319 37.432C150.353 37.432 149.413 37.577 148.496 37.8667C147.579 38.1324 146.662 38.4704 145.745 38.881L143.972 35.2222C145.034 34.6668 146.204 34.2321 147.482 33.9181C148.785 33.6042 150.136 33.4472 151.536 33.4472ZM152.296 44.5323C150.558 44.5806 149.352 44.8945 148.677 45.4741C148.001 46.0538 147.663 46.8144 147.663 47.7565C147.663 48.5776 147.905 49.1692 148.387 49.5314C148.87 49.8696 149.497 50.0386 150.269 50.0386C151.427 50.0386 152.404 49.7005 153.2 49.0243C153.997 48.3239 154.395 47.3458 154.395 46.09V44.4598L152.296 44.5323ZM176.271 33.4834C178.492 33.4834 180.289 34.3528 181.664 36.0916C183.039 37.8063 183.728 40.3421 183.728 43.699C183.728 45.9451 183.401 47.841 182.75 49.3865C182.098 50.908 181.207 52.0552 180.072 52.8281C178.939 53.6008 177.624 53.9872 176.127 53.9872C175.185 53.9872 174.366 53.8665 173.666 53.625C172.991 53.3835 172.411 53.0696 171.929 52.6831C171.447 52.2967 171.025 51.8861 170.663 51.4514H170.374C170.469 51.9103 170.543 52.3932 170.59 52.9004C170.638 53.3835 170.663 53.8665 170.663 54.3496V62.3192H165.27V33.8456H169.65L170.409 36.4177H170.663C171.025 35.8863 171.458 35.4034 171.965 34.9687C172.473 34.5098 173.075 34.1476 173.775 33.8819C174.499 33.6162 175.332 33.4834 176.271 33.4834ZM174.534 37.7942C173.594 37.7942 172.846 37.9875 172.291 38.3739C171.736 38.7603 171.327 39.352 171.06 40.1489C170.819 40.9217 170.687 41.8998 170.663 43.0833V43.6629C170.663 44.9428 170.783 46.0296 171.025 46.9232C171.265 47.7925 171.676 48.4567 172.255 48.9156C172.833 49.3745 173.617 49.6039 174.607 49.6039C175.427 49.6039 176.103 49.3745 176.633 48.9156C177.164 48.4567 177.562 47.7805 177.828 46.8869C178.093 45.9933 178.226 44.9065 178.226 43.6267C178.226 41.6946 177.924 40.2456 177.322 39.2795C176.742 38.2894 175.814 37.7942 174.534 37.7942ZM199.174 33.4834C201.393 33.4834 203.19 34.3528 204.565 36.0916C205.94 37.8063 206.629 40.3421 206.629 43.699C206.629 45.9451 206.302 47.841 205.651 49.3865C205 50.908 204.107 52.0552 202.973 52.8281C201.84 53.6008 200.525 53.9872 199.028 53.9872C198.088 53.9872 197.267 53.8665 196.567 53.625C195.892 53.3835 195.314 53.0696 194.83 52.6831C194.348 52.2967 193.926 51.8861 193.564 51.4514H193.275C193.37 51.9103 193.444 52.3932 193.492 52.9004C193.539 53.3835 193.564 53.8665 193.564 54.3496V62.3192H188.171V33.8456H192.551L193.31 36.4177H193.564C193.926 35.8863 194.361 35.4034 194.867 34.9687C195.374 34.5098 195.976 34.1476 196.676 33.8819C197.4 33.6162 198.232 33.4834 199.174 33.4834ZM197.435 37.7942C196.495 37.7942 195.747 37.9875 195.192 38.3739C194.637 38.7603 194.228 39.352 193.961 40.1489C193.721 40.9217 193.588 41.8998 193.564 43.0833V43.6629C193.564 44.9428 193.684 46.0296 193.926 46.9232C194.168 47.7925 194.577 48.4567 195.156 48.9156C195.736 49.3745 196.52 49.6039 197.508 49.6039C198.328 49.6039 199.004 49.3745 199.534 48.9156C200.065 48.4567 200.465 47.7805 200.729 46.8869C200.995 45.9933 201.127 44.9065 201.127 43.6267C201.127 41.6946 200.827 40.2456 200.223 39.2795C199.643 38.2894 198.715 37.7942 197.435 37.7942ZM216.465 53.625H211.073V26.0933H216.465V53.625ZM230.242 33.4834C232.075 33.4834 233.643 33.8336 234.947 34.5338C236.273 35.2342 237.299 36.2485 238.023 37.577C238.747 38.9052 239.109 40.5353 239.109 42.4674V45.0757H226.37C226.418 46.5972 226.864 47.7925 227.708 48.6621C228.577 49.5315 229.771 49.9661 231.291 49.9661C232.57 49.9661 233.728 49.8454 234.767 49.6039C235.804 49.3382 236.877 48.9398 237.987 48.4084V52.5744C237.021 53.0574 235.997 53.4076 234.911 53.625C233.849 53.8665 232.559 53.9872 231.038 53.9872C229.06 53.9872 227.31 53.625 225.791 52.9004C224.271 52.1518 223.077 51.0287 222.208 49.5314C221.34 48.0342 220.905 46.1503 220.905 43.8802C220.905 41.5618 221.291 39.6417 222.064 38.1202C222.859 36.5747 223.957 35.4154 225.356 34.6426C226.755 33.8697 228.385 33.4834 230.242 33.4834ZM230.278 37.3233C229.241 37.3233 228.372 37.6615 227.672 38.3376C226.997 39.0138 226.599 40.0644 226.478 41.4893H234.043C234.043 40.6923 233.898 39.9799 233.607 39.352C233.343 38.7241 232.932 38.2289 232.377 37.8667C231.822 37.5045 231.122 37.3233 230.278 37.3233Z" fill="white"/>
</g>
</svg>
