<svg width="16" height="28" viewBox="0 0 16 28" fill="none" xmlns="http://www.w3.org/2000/svg">
<mask id="mask0_14_121" style="mask-type:luminance" maskUnits="userSpaceOnUse" x="0" y="0" width="16" height="28">
<path d="M15.9662 0H0V27.8156H15.9662V0Z" fill="white"/>
</mask>
<g mask="url(#mask0_14_121)">
<mask id="mask1_14_121" style="mask-type:luminance" maskUnits="userSpaceOnUse" x="0" y="9" width="16" height="19">
<path d="M9.5129 9.5686H6.4532C2.8892 9.5686 0 12.4578 0 16.0218V21.3624C0 24.9264 2.8892 27.8156 6.4532 27.8156H9.5129C13.077 27.8156 15.9662 24.9264 15.9662 21.3624V16.0218C15.9662 12.4578 13.077 9.5686 9.5129 9.5686Z" fill="white"/>
</mask>
<g mask="url(#mask1_14_121)">
<mask id="mask2_14_121" style="mask-type:alpha" maskUnits="userSpaceOnUse" x="-1" y="9" width="18" height="19">
<path d="M-0.0556641 13.6787C-0.0556641 12.279 0.816236 11.0245 2.15904 10.6294C3.67654 10.1829 5.69514 9.683 7.28764 9.6242C9.32024 9.5491 11.9608 10.1444 13.8151 10.6559C15.1823 11.033 16.0773 12.2984 16.0773 13.7165V24.4678C16.0773 26.2933 14.6108 27.7802 12.7855 27.8054L3.32824 27.9358C1.46694 27.9615 -0.0556641 26.4598 -0.0556641 24.5982V13.6787Z" fill="#FFC364"/>
</mask>
<g mask="url(#mask2_14_121)">
<path d="M16.5782 8.6785H-0.66748V28.2607H16.5782V8.6785Z" fill="#FFB43B"/>
<path d="M-0.0556641 11.7938C-0.0556641 11.7938 4.87474 15.8664 7.84394 17.0232C12.1275 18.6921 16.0217 19.0259 16.0217 19.0259" stroke="#514235" stroke-opacity="0.28" stroke-width="0.333788"/>
<path d="M1.44678 9.0123C1.44678 9.0123 6.37728 13.0848 9.34648 14.2416C13.6301 15.9105 17.5242 16.2443 17.5242 16.2443" stroke="#514235" stroke-opacity="0.28" stroke-width="0.333788"/>
<path d="M3.67188 6.787C3.67188 6.787 8.60238 10.8595 11.5715 12.0163C15.8551 13.6853 19.7493 14.0191 19.7493 14.0191" stroke="#514235" stroke-opacity="0.28" stroke-width="0.333788"/>
<path d="M-0.111328 15.1317C-0.111328 15.1317 3.59527 18.3698 6.56447 19.5266C10.8481 21.1955 16.0218 21.9743 16.0218 21.9743" stroke="#514235" stroke-opacity="0.28" stroke-width="0.333788"/>
<path d="M-0.0556641 18.5808C-0.0556641 18.5808 3.76214 21.3182 6.73134 22.475C11.0149 24.144 15.9661 24.9784 15.9661 24.9784" stroke="#514235" stroke-opacity="0.28" stroke-width="0.333788"/>
<path d="M-0.945312 21.3624C-0.945312 21.3624 3.26189 24.1554 6.23109 25.3122C10.5147 26.9812 15.9666 27.9825 15.9666 27.9825" stroke="#514235" stroke-opacity="0.28" stroke-width="0.333788"/>
<path d="M-2.78125 23.2539C-2.78125 23.2539 1.42605 26.0469 4.39525 27.2037C8.67885 28.8726 14.1306 29.874 14.1306 29.874" stroke="#514235" stroke-opacity="0.28" stroke-width="0.333788"/>
<path d="M-8.17969 24.4417C-8.17969 24.4417 1.38867 21.6008 5.35907 19.066C11.0871 15.4092 16.9119 8.5672 16.9119 8.5672" stroke="#514235" stroke-opacity="0.28" stroke-width="0.333788"/>
<path d="M-10.8267 21.0184C-10.8267 21.0184 -1.25826 18.1775 2.71214 15.6427C8.44014 11.9859 12.0109 7.9089 12.0109 7.9089" stroke="#514235" stroke-opacity="0.28" stroke-width="0.333788"/>
<path d="M-12.1274 17.1523C-12.1274 17.1523 -2.55903 14.3114 1.41127 11.7767C7.13937 8.1198 10.7101 4.0427 10.7101 4.0427" stroke="#514235" stroke-opacity="0.28" stroke-width="0.333788"/>
<path d="M-3.60791 26.6257C-3.60791 26.6257 3.82936 24.6021 7.79966 22.0674C13.5278 18.4105 18.7356 13.2072 18.7356 13.2072" stroke="#514235" stroke-opacity="0.28" stroke-width="0.333788"/>
<path d="M1.20605 28.7578C1.20605 28.7578 8.03975 26.2933 12.0102 23.7585C17.7382 20.1017 22.8453 15.1789 22.8453 15.1789" stroke="#514235" stroke-opacity="0.28" stroke-width="0.333788"/>
<path d="M4.34229 31.5071C4.34229 31.5071 11.5639 28.6491 15.5342 26.1143C21.2623 22.4574 26.9999 17.0892 26.9999 17.0892" stroke="#514235" stroke-opacity="0.28" stroke-width="0.333788"/>
<path d="M5.49219 34.7319C5.49219 34.7319 12.7137 31.874 16.6841 29.3392C22.4121 25.6824 28.1497 20.3141 28.1497 20.3141" stroke="#514235" stroke-opacity="0.28" stroke-width="0.333788"/>
<path d="M4.45079 17.0232C5.24959 17.0232 5.89719 16.3756 5.89719 15.5767C5.89719 14.7779 5.24959 14.1303 4.45079 14.1303C3.65199 14.1303 3.00439 14.7779 3.00439 15.5767C3.00439 16.3756 3.65199 17.0232 4.45079 17.0232Z" fill="white"/>
<path d="M11.5714 17.0232C12.3702 17.0232 13.0178 16.3756 13.0178 15.5767C13.0178 14.7779 12.3702 14.1303 11.5714 14.1303C10.7726 14.1303 10.125 14.7779 10.125 15.5767C10.125 16.3756 10.7726 17.0232 11.5714 17.0232Z" fill="white"/>
<path d="M11.6827 16.2443C12.0514 16.2443 12.3502 15.9454 12.3502 15.5767C12.3502 15.2081 12.0514 14.9092 11.6827 14.9092C11.314 14.9092 11.0151 15.2081 11.0151 15.5767C11.0151 15.9454 11.314 16.2443 11.6827 16.2443Z" fill="black"/>
<path d="M4.33937 16.2443C4.70807 16.2443 5.00698 15.9454 5.00698 15.5767C5.00698 15.2081 4.70807 14.9092 4.33937 14.9092C3.97067 14.9092 3.67188 15.2081 3.67188 15.5767C3.67188 15.9454 3.97067 16.2443 4.33937 16.2443Z" fill="black"/>
<path d="M6.89844 17.9133C6.89844 17.9133 6.89014 18.8034 7.95544 18.8034C9.02064 18.8034 9.06804 17.9133 9.06804 17.9133" stroke="black" stroke-width="0.778838" stroke-linecap="round"/>
</g>
</g>
<path d="M1.55762 3.39351L5.06232 5.8969L4.61732 0.83447L6.62002 6.2863L8.40022 0L8.95652 5.8969L11.9606 1.7802L11.0149 6.787L14.8534 3.61603L10.1804 10.1249H6.00812L1.55762 3.39351Z" fill="#286F28"/>
<path d="M1.52979 5.5387L5.04918 7.2443L4.60229 3.79516L6.61329 7.5096L8.40099 3.22662L8.95959 7.2443L11.9763 4.4395L11.0267 7.8507L14.8813 5.6903L10.1887 10.1249H5.99879L1.52979 5.5387Z" fill="#50AF50"/>
</g>
</svg>
